<svg version="1.1" id="Layer_1" xmlns="http://www.w3.org/2000/svg" xmlns:xlink="http://www.w3.org/1999/xlink" x="0px" y="0px"
	 width="100%" viewBox="0 0 140 140" enable-background="new 0 0 140 140" xml:space="preserve">
<path fill="transparent" opacity="1.000000" stroke="none" 
	d="
M82.000000,141.000000 
	C54.666668,141.000000 27.833334,141.000000 1.000000,141.000000 
	C1.000000,94.333336 1.000000,47.666668 1.000000,1.000000 
	C47.666668,1.000000 94.333336,1.000000 141.000000,1.000000 
	C141.000000,47.666668 141.000000,94.333336 141.000000,141.000000 
	C121.500000,141.000000 102.000000,141.000000 82.000000,141.000000 
M64.797623,51.560558 
	C64.241669,52.696022 63.685719,53.831486 63.257240,55.651138 
	C63.958916,56.490589 64.604034,57.386116 65.371559,58.160282 
	C69.919395,62.747459 75.323715,60.435204 80.023239,60.464230 
	C79.312592,61.298237 78.601944,62.132244 77.306259,63.201168 
	C76.251251,64.454727 75.196243,65.708282 73.871140,67.522514 
	C73.238785,67.985260 72.606422,68.448006 71.318954,68.787788 
	C68.584610,66.511330 65.850273,64.234871 62.804741,61.302280 
	C58.051682,57.009109 54.170059,56.386433 49.376884,60.265041 
	C43.320095,65.166161 37.742168,70.659065 31.260094,75.995888 
	C27.460543,79.271790 23.660994,82.547691 19.652666,86.003593 
	C22.490646,89.293633 25.110281,92.330536 27.979456,95.656738 
	C31.664362,91.799965 34.860477,88.454773 38.676308,84.825272 
	C40.706539,82.804932 42.448418,80.288765 44.843540,78.895889 
	C47.541790,77.326744 49.632584,72.618820 54.216648,76.720749 
	C55.774242,77.828011 57.331841,78.935265 59.004921,80.817932 
	C59.725475,83.546127 60.446033,86.274330 61.023895,89.855133 
	C60.999241,91.868431 60.974583,93.881721 60.253586,96.312172 
	C59.557911,103.875557 58.862236,111.438942 58.026161,119.667206 
	C58.072964,120.115349 58.119762,120.563492 58.105431,121.539345 
	C58.390430,121.732124 58.675426,121.924904 59.005848,122.813210 
	C66.120461,133.389862 75.639809,135.071548 83.956345,128.204742 
	C93.233696,120.544586 101.384933,111.520569 110.644501,102.810890 
	C114.754623,98.711021 118.822525,94.567627 122.989571,90.526451 
	C125.812187,87.789108 125.965591,85.119225 122.983337,82.529343 
	C118.425064,78.570786 113.775383,74.717506 111.248878,72.581627 
	C100.039627,69.856720 94.393364,74.241272 89.582573,82.289688 
	C95.580360,82.289688 100.714188,82.289688 106.721985,82.289688 
	C105.159813,84.090187 104.304535,85.054688 103.472336,86.038712 
	C99.293404,90.980072 95.120491,95.926537 90.324821,101.167854 
	C86.687325,104.196808 82.640419,106.860359 79.522873,110.353363 
	C76.134628,114.149666 74.996025,112.532875 74.211967,108.266724 
	C74.511398,105.525558 74.810822,102.784393 75.800140,99.613312 
	C76.236671,96.089836 76.673203,92.566353 77.767349,88.660553 
	C77.871162,87.144173 77.974976,85.627800 78.677460,83.813148 
	C81.831055,80.566902 84.984650,77.320656 88.717102,73.786743 
	C90.181953,72.206223 91.646812,70.625694 93.746109,68.767494 
	C96.296005,66.967300 98.845901,65.167107 101.303757,63.431892 
	C99.468361,60.984798 98.085793,59.195965 96.761505,57.364983 
	C93.544472,52.917038 90.544556,52.372055 85.905045,55.577694 
	C84.181595,56.768497 82.619827,58.193295 80.696678,58.692890 
	C83.099548,53.889633 81.303307,50.481243 76.999290,47.300644 
	C76.689468,46.860870 76.379639,46.421093 75.614952,45.325558 
	C70.559952,44.281147 66.665596,45.385509 64.797623,51.560558 
M41.212059,95.062202 
	C38.637657,97.016312 36.063259,98.970421 33.488857,100.924530 
	C39.835533,101.810394 45.560661,102.380875 51.123375,101.673714 
	C59.027817,100.668869 59.911667,97.434059 54.629063,91.156975 
	C54.209324,90.658211 53.612152,90.308777 52.772514,89.300926 
	C51.508457,88.119835 50.244396,86.938744 48.680450,85.477448 
	C46.177177,88.991730 44.039383,91.992920 41.212059,95.062202 
M39.772312,61.748787 
	C40.417145,60.519741 40.789509,58.996487 41.749344,58.107582 
	C50.479401,50.022736 59.311901,42.048504 68.847443,33.680332 
	C74.339958,31.984182 78.806488,33.025867 83.034645,37.376221 
	C96.622787,51.357101 110.529175,65.028778 124.323799,78.808716 
	C125.550026,80.033638 126.856018,81.178719 128.565903,82.771667 
	C130.748886,77.919014 132.439941,74.224686 131.295395,69.160759 
	C130.136154,64.031792 127.624336,60.161030 124.168518,56.745251 
	C112.607765,45.318466 100.931862,34.006718 89.182396,22.773985 
	C87.489029,21.155090 85.150246,20.211311 82.776825,18.257736 
	C75.404236,14.287401 65.669907,15.135919 59.396324,21.243021 
	C46.694157,33.608109 34.369205,46.360683 21.261681,59.216721 
	C16.015581,63.935863 13.630376,69.447922 15.873033,76.588516 
	C17.482893,81.714302 18.918648,82.398750 22.757971,78.680878 
	C28.341019,73.274429 33.669823,67.605438 39.772312,61.748787 
z"/>
<path fill="#14F0DC" opacity="1.000000" stroke="none" 
	d="
M83.110138,18.955107 
	C85.150246,20.211311 87.489029,21.155090 89.182396,22.773985 
	C100.931862,34.006718 112.607765,45.318466 124.168518,56.745251 
	C127.624336,60.161030 130.136154,64.031792 131.295395,69.160759 
	C132.439941,74.224686 130.748886,77.919014 128.565903,82.771667 
	C126.856018,81.178719 125.550026,80.033638 124.323799,78.808716 
	C110.529175,65.028778 96.622787,51.357101 83.034645,37.376221 
	C78.806488,33.025867 74.339958,31.984182 68.094269,33.856071 
	C65.475304,35.156208 63.264305,35.951351 61.813995,37.472004 
	C58.570011,40.873314 55.562836,44.422546 49.252415,45.877438 
	C50.779766,43.112984 51.537800,41.541779 52.478619,40.088943 
	C53.634499,38.304008 54.961468,36.630825 56.181759,34.886448 
	C58.903797,30.995371 61.485512,26.996645 64.398529,23.255215 
	C65.141800,22.300566 67.311844,21.335264 68.140602,21.748886 
	C73.952019,24.649307 78.386070,21.209295 83.110138,18.955107 
z"/>
<path fill="#1BCCD5" opacity="1.000000" stroke="none" 
	d="
M73.833656,109.004700 
	C74.996025,112.532875 76.134628,114.149666 79.522873,110.353363 
	C82.640419,106.860359 86.687325,104.196808 91.006989,101.205215 
	C97.801544,101.858444 103.913940,102.474312 110.026321,103.090179 
	C101.384933,111.520569 93.233696,120.544586 83.956345,128.204742 
	C75.639809,135.071548 66.120461,133.389862 58.881962,122.260056 
	C58.599716,121.442116 58.402546,121.210365 58.166561,121.011635 
	C58.119762,120.563492 58.072964,120.115349 58.430435,119.177643 
	C59.553539,115.545341 60.493118,112.432755 60.927639,109.251175 
	C61.342503,106.213478 62.686325,105.777756 65.320267,106.664215 
	C68.105186,107.601501 70.991585,108.237244 73.833656,109.004700 
z"/>
<path fill="#1BF2DF" opacity="1.000000" stroke="none" 
	d="
M82.943481,18.606422 
	C78.386070,21.209295 73.952019,24.649307 68.140602,21.748886 
	C67.311844,21.335264 65.141800,22.300566 64.398529,23.255215 
	C61.485512,26.996645 58.903797,30.995371 56.181759,34.886448 
	C54.961468,36.630825 53.634499,38.304008 52.478619,40.088943 
	C51.537800,41.541779 50.779766,43.112984 49.252415,45.877438 
	C55.562836,44.422546 58.570011,40.873314 61.813995,37.472004 
	C63.264305,35.951351 65.475304,35.156208 67.727768,34.036873 
	C59.311901,42.048504 50.479401,50.022736 41.749344,58.107582 
	C40.789509,58.996487 40.417145,60.519741 39.119713,61.756485 
	C36.617161,62.370609 34.555466,62.645771 32.966900,63.661144 
	C30.586351,65.182732 28.538042,67.224098 25.660057,69.616699 
	C24.144270,65.330910 23.016495,62.142200 21.888721,58.953495 
	C34.369205,46.360683 46.694157,33.608109 59.396324,21.243021 
	C65.669907,15.135919 75.404236,14.287401 82.943481,18.606422 
z"/>
<path fill="#2866B6" opacity="1.000000" stroke="none" 
	d="
M110.335419,102.950539 
	C103.913940,102.474312 97.801544,101.858444 91.317314,101.056885 
	C95.120491,95.926537 99.293404,90.980072 103.472336,86.038712 
	C104.304535,85.054688 105.159813,84.090187 106.721985,82.289688 
	C100.714188,82.289688 95.580360,82.289688 89.582573,82.289688 
	C94.393364,74.241272 100.039627,69.856720 111.248878,72.581627 
	C113.775383,74.717506 118.425064,78.570786 122.983337,82.529343 
	C125.965591,85.119225 125.812187,87.789108 122.989571,90.526451 
	C118.822525,94.567627 114.754623,98.711021 110.335419,102.950539 
z"/>
<path fill="#38A4DD" opacity="1.000000" stroke="none" 
	d="
M53.958340,76.115997 
	C49.632584,72.618820 47.541790,77.326744 44.843540,78.895889 
	C42.448418,80.288765 40.706539,82.804932 38.216728,84.653610 
	C35.823997,81.620193 33.890842,78.758453 31.957687,75.896706 
	C37.742168,70.659065 43.320095,65.166161 49.376884,60.265041 
	C54.170059,56.386433 58.051682,57.009109 62.609447,61.701481 
	C56.060181,64.639473 53.571419,69.510246 53.958340,76.115997 
z"/>
<path fill="#30A9DC" opacity="1.000000" stroke="none" 
	d="
M54.087494,76.418373 
	C53.571419,69.510246 56.060181,64.639473 62.765041,62.029549 
	C65.850273,64.234871 68.584610,66.511330 71.706314,69.208008 
	C73.068192,72.086044 74.042717,74.543861 74.627106,76.998016 
	C69.121132,78.010414 64.005280,79.026474 58.889435,80.042526 
	C57.331841,78.935265 55.774242,77.828011 54.087494,76.418373 
z"/>
<path fill="#27F4E0" opacity="1.000000" stroke="none" 
	d="
M21.575199,59.085106 
	C23.016495,62.142200 24.144270,65.330910 25.660057,69.616699 
	C28.538042,67.224098 30.586351,65.182732 32.966900,63.661144 
	C34.555466,62.645771 36.617161,62.370609 38.787079,61.906288 
	C33.669823,67.605438 28.341019,73.274429 22.757971,78.680878 
	C18.918648,82.398750 17.482893,81.714302 15.873033,76.588516 
	C13.630376,69.447922 16.015581,63.935863 21.575199,59.085106 
z"/>
<path fill="#37ABE1" opacity="1.000000" stroke="none" 
	d="
M80.984329,59.511383 
	C82.619827,58.193295 84.181595,56.768497 85.905045,55.577694 
	C90.544556,52.372055 93.544472,52.917038 96.761505,57.364983 
	C98.085793,59.195965 99.468361,60.984798 101.303757,63.431892 
	C98.845901,65.167107 96.296005,66.967300 93.064453,68.836121 
	C87.552299,66.925247 82.721794,64.945755 77.891296,62.966255 
	C78.601944,62.132244 79.312592,61.298237 80.402863,60.233799 
	C80.990959,59.897350 81.058243,59.733353 80.984329,59.511383 
z"/>
<path fill="#27B1DE" opacity="1.000000" stroke="none" 
	d="
M58.947178,80.430229 
	C64.005280,79.026474 69.121132,78.010414 74.860519,77.252098 
	C76.348976,79.710365 77.213882,81.910889 78.078789,84.111420 
	C77.974976,85.627800 77.871162,87.144173 76.965424,88.841675 
	C71.164536,89.016037 66.165558,89.009285 61.166588,89.002525 
	C60.446033,86.274330 59.725475,83.546127 58.947178,80.430229 
z"/>
<path fill="#3FB5E1" opacity="1.000000" stroke="none" 
	d="
M31.608891,75.946297 
	C33.890842,78.758453 35.823997,81.620193 37.906872,84.795761 
	C34.860477,88.454773 31.664362,91.799965 27.979456,95.656738 
	C25.110281,92.330536 22.490646,89.293633 19.652666,86.003593 
	C23.660994,82.547691 27.460543,79.271790 31.608891,75.946297 
z"/>
<path fill="#103F7B" opacity="1.000000" stroke="none" 
	d="
M53.097443,89.889954 
	C53.612152,90.308777 54.209324,90.658211 54.629063,91.156975 
	C59.911667,97.434059 59.027817,100.668869 51.123375,101.673714 
	C45.560661,102.380875 39.835533,101.810394 33.488857,100.924530 
	C36.063259,98.970421 38.637657,97.016312 41.900192,94.892799 
	C46.091362,93.112244 49.594402,91.501099 53.097443,89.889954 
z"/>
<path fill="#22C7D9" opacity="1.000000" stroke="none" 
	d="
M74.022812,108.635712 
	C70.991585,108.237244 68.105186,107.601501 65.320267,106.664215 
	C62.686325,105.777756 61.342503,106.213478 60.927639,109.251175 
	C60.493118,112.432755 59.553539,115.545341 58.500637,118.845207 
	C58.862236,111.438942 59.557911,103.875557 60.887241,96.346008 
	C66.050682,97.600975 70.580467,98.822105 75.110245,100.043228 
	C74.810822,102.784393 74.511398,105.525558 74.022812,108.635712 
z"/>
<path fill="#24BCDB" opacity="1.000000" stroke="none" 
	d="
M75.455200,99.828278 
	C70.580467,98.822105 66.050682,97.600975 61.235413,96.137436 
	C60.974583,93.881721 60.999241,91.868431 61.095242,89.428833 
	C66.165558,89.009285 71.164536,89.016037 76.636620,89.032837 
	C76.673203,92.566353 76.236671,96.089836 75.455200,99.828278 
z"/>
<path fill="#103F7B" opacity="1.000000" stroke="none" 
	d="
M80.840500,59.102135 
	C81.058243,59.733353 80.990959,59.897350 80.638367,59.998253 
	C75.323715,60.435204 69.919395,62.747459 65.371559,58.160282 
	C64.604034,57.386116 63.958916,56.490589 63.581940,55.302361 
	C69.162842,54.191151 74.273224,53.157005 77.102081,47.871750 
	C81.303307,50.481243 83.099548,53.889633 80.840500,59.102135 
z"/>
<path fill="#2780C1" opacity="1.000000" stroke="none" 
	d="
M78.378128,83.962280 
	C77.213882,81.910889 76.348976,79.710365 75.250656,77.255768 
	C74.042717,74.543861 73.068192,72.086044 72.033867,69.269485 
	C72.606422,68.448006 73.238785,67.985260 74.343811,67.327896 
	C79.257072,69.446983 83.697662,71.760696 88.138245,74.074402 
	C84.984650,77.320656 81.831055,80.566902 78.378128,83.962280 
z"/>
<path fill="#30A9DC" opacity="1.000000" stroke="none" 
	d="
M88.427673,73.930573 
	C83.697662,71.760696 79.257072,69.446983 74.478867,67.047562 
	C75.196243,65.708282 76.251251,64.454727 77.598778,63.083714 
	C82.721794,64.945755 87.552299,66.925247 92.747231,68.974960 
	C91.646812,70.625694 90.181953,72.206223 88.427673,73.930573 
z"/>
<path fill="#1A5698" opacity="1.000000" stroke="none" 
	d="
M77.050690,47.586197 
	C74.273224,53.157005 69.162842,54.191151 63.518204,54.960266 
	C63.685719,53.831486 64.241669,52.696022 65.331886,51.194576 
	C69.267372,49.212837 72.668594,47.597080 76.069817,45.981323 
	C76.379639,46.421093 76.689468,46.860870 77.050690,47.586197 
z"/>
<path fill="#1A5698" opacity="1.000000" stroke="none" 
	d="
M52.934978,89.595444 
	C49.594402,91.501099 46.091362,93.112244 42.244957,94.858757 
	C44.039383,91.992920 46.177177,88.991730 48.680450,85.477448 
	C50.244396,86.938744 51.508457,88.119835 52.934978,89.595444 
z"/>
<path fill="#2866B6" opacity="1.000000" stroke="none" 
	d="
M75.842384,45.653442 
	C72.668594,47.597080 69.267372,49.212837 65.525703,50.893837 
	C66.665596,45.385509 70.559952,44.281147 75.842384,45.653442 
z"/>
<path fill="#22C7D9" opacity="1.000000" stroke="none" 
	d="
M58.135994,121.275490 
	C58.402546,121.210365 58.599716,121.442116 58.859249,121.912285 
	C58.675426,121.924904 58.390430,121.732124 58.135994,121.275490 
z"/>
</svg>